<svg xmlns="http://www.w3.org/2000/svg" xmlns:xlink="http://www.w3.org/1999/xlink" width="968" height="1058" viewBox="266 221 968 1058" preserveAspectRatio="xMidYMid meet" version="1.0"><defs><clipPath id="36ff76bdfc"><path d="M 266 221.132812 L 1233.996094 221.132812 L 1233.996094 1278.632812 L 266 1278.632812 Z M 266 221.132812 " clip-rule="nonzero"/></clipPath></defs><g clip-path="url(#36ff76bdfc)"><path fill="#ffffff" d="M 575.78125 221.1875 C 574.34375 221.1875 572.910156 221.222656 571.476562 221.292969 C 570.042969 221.367188 568.609375 221.472656 567.179688 221.613281 C 565.75 221.753906 564.328125 221.929688 562.90625 222.140625 C 561.488281 222.347656 560.070312 222.59375 558.664062 222.875 C 557.253906 223.15625 555.855469 223.46875 554.460938 223.820312 C 553.070312 224.167969 551.683594 224.550781 550.3125 224.96875 C 548.9375 225.382812 547.574219 225.835938 546.222656 226.316406 C 544.871094 226.800781 543.53125 227.316406 542.203125 227.867188 C 540.878906 228.417969 539.566406 229 538.265625 229.613281 C 536.96875 230.226562 535.6875 230.871094 534.421875 231.550781 C 533.15625 232.226562 531.90625 232.933594 530.671875 233.671875 C 529.441406 234.410156 528.230469 235.179688 527.035156 235.976562 C 525.839844 236.773438 524.667969 237.601562 523.515625 238.457031 C 522.359375 239.3125 521.230469 240.195312 520.121094 241.105469 C 519.007812 242.015625 517.921875 242.953125 516.859375 243.917969 C 515.792969 244.882812 514.753906 245.871094 513.738281 246.886719 C 512.722656 247.902344 511.734375 248.941406 510.769531 250.007812 C 509.804688 251.070312 508.867188 252.15625 507.957031 253.265625 C 507.046875 254.378906 506.164062 255.507812 505.308594 256.664062 C 504.453125 257.816406 503.625 258.988281 502.828125 260.183594 C 502.03125 261.378906 501.261719 262.589844 500.523438 263.820312 C 499.785156 265.054688 499.078125 266.300781 498.402344 267.570312 C 497.726562 268.835938 497.078125 270.117188 496.464844 271.414062 C 495.851562 272.714844 495.269531 274.027344 494.71875 275.351562 C 494.171875 276.679688 493.652344 278.019531 493.171875 279.371094 C 492.6875 280.722656 492.238281 282.085938 491.820312 283.460938 C 491.402344 284.832031 491.019531 286.214844 490.671875 287.609375 C 490.320312 289.003906 490.007812 290.402344 489.726562 291.8125 C 489.449219 293.21875 489.203125 294.632812 488.992188 296.054688 C 488.78125 297.476562 488.605469 298.898438 488.464844 300.328125 C 488.324219 301.757812 488.21875 303.1875 488.148438 304.625 C 488.078125 306.058594 488.042969 307.492188 488.042969 308.929688 L 488.042969 603.40625 C 510.992188 564.117188 543.128906 529.882812 573.199219 497.84375 C 615.941406 452.105469 656.828125 408.636719 663.519531 359.925781 L 663.519531 308.929688 C 663.519531 307.492188 663.484375 306.058594 663.414062 304.621094 C 663.34375 303.1875 663.238281 301.757812 663.097656 300.328125 C 662.957031 298.898438 662.785156 297.472656 662.574219 296.054688 C 662.363281 294.632812 662.117188 293.21875 661.835938 291.808594 C 661.558594 290.402344 661.242188 289 660.894531 287.609375 C 660.546875 286.214844 660.164062 284.832031 659.746094 283.457031 C 659.328125 282.082031 658.878906 280.71875 658.394531 279.367188 C 657.914062 278.015625 657.394531 276.675781 656.847656 275.347656 C 656.296875 274.023438 655.714844 272.710938 655.101562 271.410156 C 654.488281 270.113281 653.84375 268.832031 653.164062 267.566406 C 652.488281 266.296875 651.78125 265.050781 651.042969 263.816406 C 650.304688 262.585938 649.535156 261.371094 648.738281 260.179688 C 647.941406 258.984375 647.113281 257.8125 646.257812 256.65625 C 645.402344 255.503906 644.519531 254.371094 643.609375 253.261719 C 642.699219 252.152344 641.761719 251.066406 640.796875 250 C 639.832031 248.9375 638.84375 247.898438 637.828125 246.882812 C 636.8125 245.867188 635.773438 244.875 634.707031 243.914062 C 633.644531 242.949219 632.558594 242.011719 631.445312 241.097656 C 630.335938 240.1875 629.207031 239.304688 628.050781 238.449219 C 626.898438 237.59375 625.726562 236.769531 624.53125 235.96875 C 623.335938 235.171875 622.125 234.40625 620.890625 233.667969 C 619.660156 232.929688 618.410156 232.21875 617.144531 231.542969 C 615.878906 230.867188 614.597656 230.222656 613.296875 229.609375 C 612 228.992188 610.6875 228.414062 609.359375 227.863281 C 608.035156 227.3125 606.695312 226.796875 605.339844 226.3125 C 603.988281 225.828125 602.625 225.378906 601.253906 224.964844 C 599.878906 224.546875 598.496094 224.164062 597.101562 223.816406 C 595.707031 223.464844 594.308594 223.152344 592.898438 222.871094 C 591.492188 222.59375 590.078125 222.347656 588.65625 222.136719 C 587.234375 221.925781 585.808594 221.75 584.382812 221.609375 C 582.953125 221.46875 581.519531 221.363281 580.085938 221.292969 C 578.652344 221.222656 577.21875 221.1875 575.78125 221.1875 Z M 861.152344 1104.9375 C 857.917969 1104.933594 854.6875 1104.851562 851.457031 1104.691406 C 848.226562 1104.527344 845.003906 1104.289062 841.785156 1103.96875 C 838.566406 1103.648438 835.359375 1103.25 832.164062 1102.773438 C 828.964844 1102.296875 825.777344 1101.742188 822.609375 1101.109375 C 819.4375 1100.472656 816.285156 1099.765625 813.148438 1098.976562 C 810.011719 1098.1875 806.894531 1097.324219 803.800781 1096.382812 C 800.707031 1095.445312 797.640625 1094.429688 794.59375 1093.335938 C 791.550781 1092.246094 788.535156 1091.082031 785.550781 1089.84375 C 782.5625 1088.605469 779.605469 1087.292969 776.683594 1085.910156 C 773.761719 1084.527344 770.875 1083.070312 768.023438 1081.546875 C 765.171875 1080.019531 762.359375 1078.425781 759.585938 1076.765625 C 756.8125 1075.101562 754.082031 1073.371094 751.394531 1071.574219 C 748.707031 1069.777344 746.0625 1067.917969 743.464844 1065.988281 C 740.867188 1064.0625 738.320312 1062.074219 735.820312 1060.023438 C 733.320312 1057.972656 730.871094 1055.859375 728.476562 1053.6875 C 726.082031 1051.519531 723.738281 1049.289062 721.453125 1047.003906 C 719.164062 1044.71875 716.933594 1042.375 714.761719 1039.980469 C 712.589844 1037.585938 710.480469 1035.136719 708.425781 1032.640625 C 706.375 1030.140625 704.382812 1027.59375 702.457031 1024.996094 C 700.53125 1022.398438 698.667969 1019.757812 696.871094 1017.070312 C 695.070312 1014.382812 693.339844 1011.652344 691.675781 1008.878906 C 690.011719 1006.105469 688.417969 1003.296875 686.890625 1000.445312 C 685.363281 997.59375 683.910156 994.707031 682.523438 991.785156 C 681.140625 988.863281 679.828125 985.910156 678.589844 982.921875 C 677.347656 979.9375 676.183594 976.921875 675.089844 973.875 C 674 970.832031 672.980469 967.765625 672.039062 964.671875 C 671.097656 961.578125 670.234375 958.464844 669.445312 955.328125 C 668.65625 952.191406 667.945312 949.039062 667.308594 945.867188 C 666.675781 942.695312 666.117188 939.511719 665.640625 936.3125 C 665.164062 933.117188 664.761719 929.90625 664.441406 926.691406 C 664.121094 923.472656 663.878906 920.25 663.714844 917.019531 C 663.550781 913.789062 663.46875 910.558594 663.464844 907.324219 L 663.464844 859.003906 C 635.011719 876.789062 582.007812 950.367188 491.535156 964.9375 C 512.703125 1119.769531 643.375 1255.660156 813.296875 1277.460938 C 905.847656 1256.03125 958.257812 1193.585938 986.675781 1142.109375 C 997.804688 1121.558594 1007.007812 1100.179688 1014.285156 1077.972656 C 1021.5625 1055.765625 1026.792969 1033.082031 1029.976562 1009.933594 C 1027.785156 1013.535156 1025.480469 1017.066406 1023.0625 1020.527344 C 1020.644531 1023.984375 1018.117188 1027.359375 1015.484375 1030.65625 C 1012.847656 1033.949219 1010.113281 1037.160156 1007.273438 1040.28125 C 1004.433594 1043.398438 1001.496094 1046.425781 998.464844 1049.359375 C 995.429688 1052.292969 992.304688 1055.125 989.09375 1057.859375 C 985.878906 1060.589844 982.578125 1063.21875 979.195312 1065.738281 C 975.8125 1068.261719 972.351562 1070.671875 968.816406 1072.972656 C 965.277344 1075.269531 961.671875 1077.457031 957.996094 1079.523438 C 954.320312 1081.59375 950.578125 1083.542969 946.777344 1085.375 C 942.976562 1087.203125 939.121094 1088.910156 935.207031 1090.492188 C 931.296875 1092.074219 927.339844 1093.53125 923.335938 1094.859375 C 919.332031 1096.191406 915.289062 1097.390625 911.207031 1098.460938 C 907.128906 1099.53125 903.015625 1100.472656 898.875 1101.28125 C 894.734375 1102.089844 890.570312 1102.761719 886.386719 1103.304688 C 882.203125 1103.84375 878.007812 1104.253906 873.796875 1104.523438 C 869.585938 1104.796875 865.371094 1104.933594 861.152344 1104.9375 Z M 861.152344 534.214844 C 780.550781 534.214844 716.730469 557.296875 663.519531 589.261719 L 663.519531 439.042969 C 645.195312 466.433594 620.773438 492.378906 595.777344 518.957031 C 546.15625 571.847656 495.03125 626.285156 487.984375 696.925781 L 487.984375 734.746094 C 443.25 772.453125 404.355469 794.683594 350.792969 796.296875 C 349.367188 796.359375 347.949219 796.453125 346.527344 796.585938 C 345.109375 796.714844 343.695312 796.878906 342.285156 797.078125 C 340.875 797.277344 339.46875 797.507812 338.070312 797.777344 C 336.671875 798.042969 335.277344 798.34375 333.894531 798.679688 C 332.507812 799.015625 331.132812 799.382812 329.765625 799.785156 C 328.398438 800.1875 327.042969 800.625 325.699219 801.089844 C 324.351562 801.558594 323.019531 802.058594 321.699219 802.59375 C 320.378906 803.125 319.070312 803.691406 317.777344 804.289062 C 316.480469 804.882812 315.203125 805.511719 313.941406 806.171875 C 312.675781 806.828125 311.429688 807.519531 310.203125 808.238281 C 308.972656 808.957031 307.761719 809.707031 306.566406 810.484375 C 305.375 811.265625 304.203125 812.070312 303.046875 812.90625 C 301.894531 813.742188 300.761719 814.605469 299.648438 815.496094 C 298.539062 816.390625 297.449219 817.304688 296.382812 818.25 C 295.316406 819.195312 294.273438 820.164062 293.25 821.160156 C 292.230469 822.152344 291.238281 823.171875 290.265625 824.214844 C 289.296875 825.257812 288.351562 826.324219 287.433594 827.414062 C 286.515625 828.503906 285.625 829.613281 284.761719 830.746094 C 283.898438 831.878906 283.0625 833.03125 282.253906 834.207031 C 281.445312 835.378906 280.664062 836.570312 279.914062 837.785156 C 279.167969 838.996094 278.445312 840.222656 277.757812 841.46875 C 277.066406 842.714844 276.40625 843.980469 275.777344 845.257812 C 275.148438 846.535156 274.550781 847.828125 273.988281 849.136719 C 273.421875 850.445312 272.886719 851.765625 272.386719 853.097656 C 271.886719 854.429688 271.417969 855.777344 270.980469 857.132812 C 270.546875 858.488281 270.144531 859.855469 269.773438 861.230469 C 269.402344 862.605469 269.070312 863.992188 268.765625 865.382812 C 268.464844 866.777344 268.195312 868.175781 267.964844 869.582031 C 267.730469 870.984375 267.53125 872.394531 267.367188 873.8125 C 267.199219 875.226562 267.070312 876.644531 266.972656 878.066406 C 266.878906 879.488281 266.816406 880.910156 266.789062 882.335938 C 266.761719 883.757812 266.769531 885.183594 266.8125 886.605469 C 266.855469 888.03125 266.933594 889.453125 267.046875 890.875 C 267.15625 892.292969 267.304688 893.710938 267.484375 895.125 C 267.667969 896.535156 267.882812 897.945312 268.132812 899.347656 C 268.378906 900.75 268.664062 902.144531 268.980469 903.535156 C 269.300781 904.921875 269.648438 906.304688 270.035156 907.675781 C 270.417969 909.046875 270.835938 910.40625 271.289062 911.757812 C 271.738281 913.109375 272.222656 914.449219 272.738281 915.777344 C 273.253906 917.105469 273.804688 918.421875 274.382812 919.722656 C 274.964844 921.023438 275.574219 922.308594 276.21875 923.578125 C 276.863281 924.851562 277.535156 926.105469 278.238281 927.34375 C 278.941406 928.582031 279.675781 929.804688 280.441406 931.007812 C 281.203125 932.210938 281.996094 933.394531 282.816406 934.558594 C 283.636719 935.722656 284.488281 936.863281 285.363281 937.988281 C 286.242188 939.109375 287.144531 940.210938 288.074219 941.289062 C 289.003906 942.371094 289.960938 943.425781 290.945312 944.457031 C 291.925781 945.488281 292.933594 946.496094 293.960938 947.480469 C 294.992188 948.464844 296.046875 949.421875 297.125 950.351562 C 298.203125 951.285156 299.300781 952.191406 300.425781 953.070312 C 301.546875 953.945312 302.6875 954.796875 303.851562 955.621094 C 305.015625 956.441406 306.195312 957.238281 307.398438 958.003906 C 308.601562 958.765625 309.820312 959.503906 311.058594 960.207031 C 312.292969 960.914062 313.546875 961.589844 314.820312 962.234375 C 316.089844 962.878906 317.375 963.492188 318.675781 964.074219 C 319.976562 964.65625 321.289062 965.207031 322.617188 965.726562 C 323.941406 966.242188 325.28125 966.730469 326.632812 967.183594 C 327.984375 967.632812 329.34375 968.054688 330.714844 968.441406 C 332.085938 968.828125 333.464844 969.179688 334.855469 969.5 C 336.242188 969.820312 337.640625 970.105469 339.039062 970.355469 C 340.441406 970.609375 341.851562 970.824219 343.261719 971.007812 C 344.675781 971.191406 346.09375 971.339844 347.511719 971.453125 C 348.933594 971.566406 350.355469 971.648438 351.777344 971.691406 C 353.203125 971.734375 354.628906 971.746094 356.050781 971.722656 C 374.207031 971.238281 392.214844 969.351562 410.074219 966.058594 C 427.933594 962.761719 445.429688 958.101562 462.5625 952.078125 C 462.5625 952.078125 463.378906 951.761719 464.828125 951.257812 C 465.285156 951.125 465.730469 950.960938 466.167969 950.777344 C 467.339844 950.367188 468.507812 949.941406 469.640625 949.457031 C 470.777344 948.972656 471.5 948.804688 472.394531 948.433594 C 473.878906 947.878906 475.347656 947.300781 476.835938 946.574219 L 479.101562 945.683594 C 480.144531 945.273438 481.164062 944.867188 482.207031 944.421875 C 484.675781 943.378906 487.132812 942.320312 489.527344 941.242188 C 559.148438 910.929688 662.367188 812.320312 687.941406 790.164062 L 689.113281 789.160156 C 745.40625 739.132812 791.125 709.542969 861.097656 709.542969 C 864.023438 709.546875 866.945312 709.617188 869.871094 709.75 C 872.792969 709.882812 875.710938 710.082031 878.625 710.34375 C 881.539062 710.605469 884.445312 710.933594 887.34375 711.324219 C 890.246094 711.714844 893.132812 712.171875 896.011719 712.691406 C 898.890625 713.210938 901.757812 713.792969 904.613281 714.441406 C 907.464844 715.085938 910.304688 715.796875 913.125 716.570312 C 915.949219 717.339844 918.75 718.175781 921.535156 719.074219 C 924.320312 719.96875 927.085938 720.929688 929.828125 721.949219 C 932.570312 722.96875 935.289062 724.046875 937.984375 725.1875 C 940.675781 726.328125 943.34375 727.527344 945.988281 728.785156 C 948.628906 730.042969 951.242188 731.359375 953.824219 732.734375 C 956.40625 734.109375 958.957031 735.539062 961.476562 737.027344 C 963.996094 738.515625 966.480469 740.054688 968.933594 741.652344 C 971.382812 743.25 973.800781 744.902344 976.175781 746.609375 C 978.554688 748.3125 980.894531 750.070312 983.195312 751.878906 C 985.492188 753.6875 987.753906 755.542969 989.96875 757.453125 C 992.1875 759.363281 994.363281 761.320312 996.492188 763.324219 C 998.625 765.328125 1000.707031 767.378906 1002.75 769.476562 C 1004.789062 771.574219 1006.78125 773.71875 1008.726562 775.902344 C 1010.671875 778.089844 1012.566406 780.316406 1014.410156 782.585938 C 1016.257812 784.855469 1018.050781 787.167969 1019.796875 789.515625 C 1021.539062 791.867188 1023.230469 794.253906 1024.867188 796.675781 C 1026.503906 799.101562 1028.089844 801.5625 1029.617188 804.054688 C 1031.144531 806.550781 1032.617188 809.078125 1034.035156 811.636719 C 1035.453125 814.199219 1036.8125 816.789062 1038.113281 819.410156 C 1039.414062 822.03125 1040.65625 824.675781 1041.839844 827.351562 C 1043.027344 830.027344 1044.148438 832.730469 1045.214844 835.453125 C 1046.277344 838.179688 1047.28125 840.925781 1048.226562 843.695312 C 1049.167969 846.46875 1050.046875 849.257812 1050.867188 852.066406 C 1051.6875 854.875 1052.441406 857.699219 1053.136719 860.542969 C 1053.828125 863.382812 1054.460938 866.242188 1055.027344 869.113281 C 1055.59375 871.980469 1056.097656 874.863281 1056.535156 877.757812 C 1056.535156 877.867188 1056.535156 877.980469 1056.535156 878.074219 C 1073.835938 954.269531 1064.210938 1065.222656 1013.789062 1156.84375 C 990.875 1198.421875 953.816406 1246.386719 895.703125 1278.6875 C 1085.265625 1261.179688 1234.1875 1101.238281 1234.1875 907.214844 C 1234.242188 701.589844 1066.886719 534.214844 861.152344 534.214844 Z M 861.152344 534.214844 " fill-opacity="1" fill-rule="nonzero"/></g></svg>